<?xml version="1.0" encoding="UTF-8"?>
<!DOCTYPE svg PUBLIC "-//W3C//DTD SVG 1.1//EN" "http://www.w3.org/Graphics/SVG/1.1/DTD/svg11.dtd">
<!-- Creator: CorelDRAW -->
<svg xmlns="http://www.w3.org/2000/svg" xml:space="preserve" width="103.382mm" height="78.7664mm" version="1.1" style="shape-rendering:geometricPrecision; text-rendering:geometricPrecision; image-rendering:optimizeQuality; fill-rule:evenodd; clip-rule:evenodd"
viewBox="0 0 9733.83 7416.16"
 xmlns:xlink="http://www.w3.org/1999/xlink"
 xmlns:xodm="http://www.corel.com/coreldraw/odm/2003">
 <defs>
  <style type="text/css">
   <![CDATA[
    .str0 {stroke:white;stroke-width:15.94;stroke-miterlimit:22.9256}
    .fil3 {fill:#0057B7}
    .fil1 {fill:#00B140}
    .fil5 {fill:#373A35}
    .fil4 {fill:#DA291C}
    .fil2 {fill:#FFD100}
    .fil0 {fill:white}
   ]]>
  </style>
 </defs>
 <g id="Camada_x0020_1">
  <metadata id="CorelCorpID_0Corel-Layer"/>
  <g id="_2505553873824">
   <rect class="fil0 str0" x="7.97" y="7.97" width="9717.88" height="7400.21"/>
   <path class="fil1" d="M3796.13 358.07c0,74.98 47.83,80.44 47.83,159.43 0,39.82 -125.97,119.58 -199.3,119.58 -67.16,0 -54.78,-162.6 -248.91,-41.64 -127.72,79.58 -62.2,249.38 -93.54,432.59 -30.09,175.94 -247.57,88.28 -324.12,202 -40.99,60.9 -34.94,152.92 -34.94,228.13 0,168.02 118.78,237.32 271.47,270.62 217.06,47.32 251.33,-103.21 453.95,-103.21 40.63,0 56.26,94.19 71.49,127.8 41.52,91.61 276.18,137.4 380.7,225.15 85.31,71.63 32.04,100.58 133.1,265.48 89.55,146.13 140.14,163.85 140.14,322.23 0,175.95 -43.72,209.91 121.92,348.4 76.36,63.85 228.83,175.2 228.83,273.39 0,109.98 -277.25,235.96 -312.73,357.52 -19.77,67.72 72.22,170.51 116.8,205.11 153.04,118.79 229.1,171.33 407.92,32 26.79,-20.87 41.06,-39.65 67.18,-60.37 39.98,-31.71 141.14,-159.72 172.09,-210.56 86.34,-141.83 -25.72,-324.56 96.29,-421.88 73.89,-58.94 264.05,-112.46 368.29,-149.86 65.42,-23.47 122.64,-49.37 160.49,-102.57 187.49,-263.57 173.14,-763.48 321.91,-961.54l128.97 -134.09c52.71,-40.69 218.6,-217.82 218.6,-299.56 0,-100.58 -67.03,-224.67 -133.28,-289.22 -29.51,-28.75 -54.43,-34.78 -89.93,-53.56 -106.59,159.2 -463.04,609.11 -591,780.13 -24.9,33.28 -47.05,59.99 -72.91,94.48 -13.15,17.54 -25.04,36.27 -37.2,50.49 -29.15,34.07 -555.73,238.71 -656.78,283.87l-124.84 50.54c2.99,-35.96 11.68,-81.11 15.95,-119.58 4.46,-40.16 10.03,-81.48 15.49,-120.03l61.83 -480.24c5.24,-39.82 4.25,-87.2 19.45,-116.06l292.74 -384.85c41.52,-51.91 76.08,-99.36 117.17,-153.86 37.12,-49.22 87.67,-104.09 115.1,-155.94 -259.7,-137.42 -210.51,-128.74 -395.67,-76.78 -310.93,87.25 143.3,-417.46 -90.6,-417.46 -202.99,0 -432.32,223.2 -573.96,223.2l-47.83 0c-171.21,0 20.85,-456.3 -394.14,-290.51 -38.91,15.55 -124.02,65.93 -124.02,91.23z"/>
   <path class="fil2" d="M4346.18 3594.56c0,-118.76 63.45,-181.16 129.89,-236.8 288.96,-241.94 210.71,-149.1 -72.26,-434.65 -140.53,-141.82 -89.52,-194.55 -89.52,-396.76 0,-70.22 -29.12,-83.23 -57.5,-125.85 -40.71,-61.11 -112.74,-169.86 -138.66,-236.01 -46.17,-117.79 2.59,-108.41 -181.12,-193.54 -100.83,-46.72 -155.53,-53.52 -238.71,-135.97 -55.97,-55.49 -31.19,-66.35 -61.6,-129.72 -63.18,5.25 -223.95,119.58 -318.86,119.58 -113.11,0 -241.24,-47.49 -328.5,-101.97 -79.24,-49.48 -47.88,-43.33 -78.05,-65.44l-682.95 1246.2c-131.07,244.14 -128.73,206.69 -33.24,197.7l150.18 6.94c204.29,-0.12 392.98,23.27 573.52,48.27 126.58,17.53 391.32,66.43 517.66,104.13 397.08,118.51 417.58,120.28 800.42,283.73 36.74,15.68 72.63,41.59 109.3,50.13z"/>
   <path class="fil2" d="M5262.92 3554.7c30.22,-2.51 186.9,-79.55 229.96,-96.88 74.87,-30.14 153.84,-64.02 235.34,-91.5 82.62,-27.86 163.62,-58.22 245.87,-80.96 278.27,-76.94 673.62,-172.69 962.83,-185.1 38.25,-1.64 113.92,-6.34 154.88,-12.52l323.48 -11.34 -156.81 -289.6c-9.99,-18.61 -13.81,-29.56 -23.98,-47.76l-241.35 -436.24c-17.47,-30.09 -32.93,-60.73 -50.72,-92.77l-388.07 -688.1c-13.39,57.47 -134.74,194.66 -177.37,237.15 -207.54,206.89 -219.98,183.4 -289.63,539.43 -29.14,148.97 -68.6,353.95 -136.01,485.78 -18.87,36.88 -55.24,98.35 -80.44,126.83 -126.14,142.56 -493.51,159.84 -552.42,276.62 -40.49,80.26 39.7,224.71 -55.55,366.96z"/>
   <path class="fil3" d="M2425 5762.86l279.01 0 0 -852.97c9.26,10.64 2.95,0.18 12.48,19.41 4.45,8.97 8.07,20.11 11.63,28.23l71.66 159.52c14.24,31.92 32.11,71.54 47.72,103.74l239.15 542.07 279.02 0 0 -1347.21 -271.04 0 0 868.91 -23.92 -47.83c-9.92,-20.21 -15.52,-31.26 -25.04,-54.68l-99.14 -219.72c-17.81,-42.92 -30.67,-67.9 -48.89,-110.54 -8.48,-19.86 -14.62,-28.91 -23.59,-48.16l-170.03 -387.98 -279.01 0 0 1347.21z"/>
   <path class="fil3" d="M1572.03 5244.7c0,-165.07 -24.36,-439.42 68.69,-553.11 77.75,-95.03 345.85,-128.05 345.85,250.19 0,199.53 45.77,605.84 -183.36,605.84 -61.81,0 -84.99,4.77 -135.85,-31.55 -30.38,-21.7 -35.26,-30.62 -53.05,-66.53 -28.6,-57.73 -42.28,-121.68 -42.28,-204.84zm-279.01 -279.01c0,256.35 -34.75,623.85 260.15,768.19 268.51,131.43 712.4,17.67 712.4,-481.22 0,-241.98 27.87,-503.04 -118.23,-686.91 -181.63,-228.61 -565.79,-220.08 -734.94,1.16 -71.98,94.14 -119.38,233.25 -119.38,398.78z"/>
   <path class="fil3" d="M4027.31 4798.29c5.06,60.78 110.46,403.19 111.6,454.38l-231.18 0c0.93,-41.62 17.15,-76.33 27.19,-116.29 10.52,-41.79 18.34,-76.39 28.55,-114.94l63.84 -223.14zm-550.05 964.57l294.96 0 52.43 -210.63c6.66,-28.46 7.2,-60.41 35.25,-60.41l350.75 0c0.96,43.16 21.93,97.63 31.95,135.46 9.37,35.36 28.86,99.86 31.83,135.58l294.95 0c-3.21,-38.64 -162.9,-532.66 -184.42,-596.8l-213.13 -679.7c-29.67,-90.51 13.36,-70.71 -256.13,-70.71 -32.09,0 -48.28,101.76 -66.77,156.43l-371.67 1190.78z"/>
   <path class="fil3" d="M4657.08 4439.56l0 1299.38c0,18.37 5.55,23.92 23.92,23.92l757.31 0 0 -231.18 -502.22 0 0 -350.76 422.5 0 0 -223.2 -422.5 0 0 -310.9 502.22 0 0 -207.26c0,-18.37 -5.55,-23.92 -23.92,-23.92l-733.39 0c-18.37,0 -23.92,5.55 -23.92,23.92z"/>
   <path class="fil3" d="M248.73 4909.89c0,219.87 -31.08,553.66 117.57,719.46 100.78,112.41 179.42,142.57 335.64,150.71 152.14,7.93 267.27,-32.03 354,-118.77 43.72,-43.73 70.96,-83.32 93.7,-145.46 17.72,-48.44 39.75,-142.45 39.75,-207.36l-279.01 0c0,49.99 -13.45,124.74 -29.16,162.16 -44.79,106.71 -266.22,110.14 -321.89,-10.4 -48.07,-104.11 -31.59,-423.89 -31.59,-558.31 0,-115.11 33.79,-271.03 175.37,-271.03 154.56,0 207.27,44.88 207.27,247.12l279.01 0c0,-231.18 -148.41,-478.3 -422.5,-478.3 -185.02,0 -267.95,16.16 -396.74,153.32 -63.32,67.44 -121.43,227.02 -121.43,356.87z"/>
   <path class="fil1" d="M7200.04 5635.31c-206.24,0 -207.26,-282.14 -207.26,-438.44 0,-182.68 -39.86,-653.68 191.32,-653.68 232.54,0 199.29,415.45 199.29,613.82 0,185.59 -9.18,478.3 -183.35,478.3zm-374.67 -693.53c0,258.33 -32.12,636.13 177.42,787.15 120.46,86.81 368.8,82.15 468.43,-109.41 98,-188.39 79.56,-449.25 79.56,-669.77 0,-269.74 -77.72,-550.05 -342.78,-550.05 -151.51,0 -244.76,41.8 -308.47,169.83 -45.2,90.85 -74.17,238.62 -74.17,372.25z"/>
   <path class="fil1" d="M9081.36 4694.65l0 613.82 -310.9 0c8.58,-36.8 54.81,-117.57 74.41,-156.78l236.49 -457.04zm-502.22 661.65l0 95.66 502.22 0 0 310.9c107.45,0 175.38,15.99 175.38,-23.92l0 -286.98 143.49 0 0 -143.49 -143.49 0 0 -868.91c0,-34.72 -42.72,-24.56 -79.57,-24.07 -34.54,0.47 -69.23,0.15 -103.78,0.15 -9.79,36.66 -71.38,134.94 -90.46,172.6l-345.37 643.13c-14.02,26.04 -58.42,102.09 -58.42,124.92z"/>
   <path class="fil1" d="M7710.23 4766.4l0 55.81c218.63,0 151.51,13.93 174.34,-96.7 56.12,-271.89 375.7,-219.02 375.7,16.98l0 79.72c0,204.81 -534.11,768.84 -534.11,829.05l0 111.6 757.31 0 0 -143.49 -550.05 0 143.41 -191.41c134.38,-175.61 358.81,-425.51 358.81,-669.54 0,-105.06 -32.43,-194.64 -85.51,-249.29 -95.64,-98.46 -152.85,-109.44 -289.16,-109.44 -105.13,0 -198.93,52.54 -249.1,109.62 -50.39,57.31 -101.65,152.84 -101.65,257.08z"/>
   <path class="fil1" d="M5908.63 4774.37l0 47.83c209.68,0 154.85,21.86 175.09,-95.95 45.17,-262.95 374.96,-229.91 374.96,16.23l0 79.72c0,134.92 -175.85,343.35 -243.71,433.88l-219.79 290.39c-85.78,114.34 -70.6,71.27 -70.6,216.38l757.31 0 0 -143.49 -550.05 0c173.52,-259.12 502.22,-556.6 502.22,-876.88 0,-97.8 -39.43,-186.88 -89.51,-237.32 -94.79,-95.49 -150.9,-105.46 -285.15,-105.46 -200.19,0 -350.76,176.08 -350.76,374.68z"/>
   <path class="fil4" d="M5151.32 3706.17l352.39 -109.97c391.53,-107.18 823.58,-169.04 1233.98,-169.04 69.47,0 114.48,8.43 175.18,8.16 93.16,-0.4 464.59,25.68 510.38,47.64 -2.92,-35.03 -83.53,-161.62 -108.95,-209.93 -41.37,-78.61 -4.43,-61.12 -233.84,-61.12 -385.19,0 -763.83,60.18 -1076.09,135.61 -255.09,61.62 -451.78,124.85 -689.06,219.71 -22.51,9 -30.65,11.97 -51.57,20.18 -45.18,17.74 -85.18,78.06 -112.43,118.76z"/>
   <path class="fil4" d="M2138.02 3474.98l287.42 -31.44c140.87,-11.01 327.83,-19.97 462.33,-8.83 50.35,4.16 108.05,-2.38 159.05,0.38 316.37,17.08 818.56,103.48 1095.17,196.24 43.37,14.55 78.39,23.04 121.57,37.86l122.47 44.94c-7.44,-31.92 -30.11,-87.64 -58.57,-100.86 -19.9,-9.26 -36.12,-14.82 -56.4,-23.32 -436.22,-182.99 -1039.45,-339.3 -1519.15,-362.15 -35.13,-1.68 -33.34,-7.05 -71.56,-8.17l-406.81 -7.71c-8.65,32.4 -51.44,94.33 -69.16,130.14 -20.65,41.74 -56.49,90.53 -66.37,132.93z"/>
   <path class="fil3" d="M5358.58 1840.79c0,56.42 32.94,95.66 87.69,95.66 46.3,0 70.65,-45.25 93.83,-73.57l217.06 -285.15c47.75,-63.81 95.86,-125.1 144.58,-190.22l435.09 -569.35c25.71,-34.46 281.27,-353.07 281.27,-388.35 0,-73.17 -78.9,-159.57 -177.69,-26.22 -25.89,34.95 -46.82,59.85 -72.93,94.47 -117.86,156.29 -1008.92,1305.57 -1008.92,1342.73z"/>
   <path class="fil3" d="M6347.07 421.84c0,-23.98 1.33,-45.48 -27.08,-68.58 -64.7,-52.61 -118.47,6.98 -150.61,50.33 -287.05,387.34 -604.52,787.78 -896.22,1176.41 -51.68,68.86 -126.73,134.2 -60.99,199.94 82.59,82.59 147.44,-39.33 180.78,-80.15 49.82,-61 88.72,-119.33 138.54,-180.33l689.19 -905.14c23.51,-31.33 43.61,-60.28 68.76,-90.68 19.81,-23.95 57.64,-64.1 57.64,-101.79z"/>
   <path class="fil3" d="M5015.8 1585.7c0,64.49 80.12,143.62 168.67,33.15l836.86 -1100.26c24.76,-33.03 89.4,-91.12 33.45,-155.21 -43.3,-49.6 -100.65,-33.54 -142.93,21.82 -23.21,30.39 -39.8,50.84 -62.52,80.97l-481.68 634.35c-42.45,53.07 -79.98,105.37 -120.59,158.42 -36.47,47.66 -231.26,284.46 -231.26,326.75z"/>
   <path class="fil5" d="M3580.9 6488.28c80.71,0 63.79,12.85 63.77,-135.52 -0.01,-55.81 0,-111.6 0,-167.41 20.51,15.03 193.99,283.07 199.3,302.92l63.77 0 0 -430.46c-68.23,0 -64.93,-4.86 -64.47,55.11l0.7 255.78 -159.44 -239.15c-49.89,-74.92 -34.14,-71.74 -103.63,-71.74l0 430.46z"/>
   <path class="fil5" d="M6857.27 6488.28l271.03 0c0,-72.69 23.32,-55.8 -207.26,-55.8l0 -135.53c158.54,0 183.35,16.27 183.35,-31.88 0,-40.49 -73.22,-23.92 -183.35,-23.92l0 -127.55 207.26 0 0 -55.8 -271.03 0 0 430.46z"/>
   <path class="fil5" d="M7223.96 6328.85c0,-158.37 151.47,-121.07 151.47,-63.77 0,106.28 20.69,175.37 -71.75,175.37 -55.64,0 -79.72,-55.67 -79.72,-111.6zm151.47 -135.52c-125.25,-83.87 -207.27,18.1 -207.27,103.63 0,72.94 1.54,199.3 127.55,199.3 34.09,0 59.44,-18.3 79.72,-31.89 6.56,24.58 1.27,23.92 39.86,23.92 18.37,0 23.92,-5.55 23.92,-23.92l0 -406.55c0,-30.19 -18.6,-23.92 -63.77,-23.92l0 159.43z"/>
   <path class="fil5" d="M6099.95 6360.74c0,-70.84 -10.08,-143.49 87.69,-143.49 97.68,0 65.32,182.55 49.16,200.62 -38.61,43.21 -136.85,27.49 -136.85,-57.13zm151.47 -167.41c-263.89,-176.71 -290.35,407.49 -31.16,285.79 21.63,-10.16 27.96,-27.35 31.16,9.15l55.81 0 0 -454.38 -55.81 0 0 159.43z"/>
   <path class="fil5" d="M232.79 6273.04c0,119.49 56.7,223.21 175.38,223.21 119.79,0 213.27,-151.47 119.58,-151.47 -55.46,0 10.6,95.66 -135.53,95.66 -122.26,0 -142.31,-334.81 15.95,-334.81 61.55,0 94.33,36.16 95.66,95.66l63.77 0c-2.23,-100.36 -93.13,-166.8 -192.22,-144.94 -97.06,21.42 -142.59,102.16 -142.59,216.69z"/>
   <path class="fil5" d="M8898.01 6440.45c-93.15,0 -84.73,-103.63 15.94,-103.63l55.81 0c0,37.13 5.03,103.63 -71.75,103.63zm-95.66 -175.37c65.47,0 36.9,-55.81 103.64,-55.81 49.07,0 63.77,35.18 63.77,79.72 -81.03,0 -166.13,2.38 -190.48,81.19 -28.68,92.77 94.16,170.98 182.51,94.18 26.66,19.54 0.09,23.92 79.72,23.92 -15.85,-68.02 -1.04,-139.74 -8.8,-214.41 -7.74,-74.47 -47.69,-112.43 -126.71,-112.43 -98.8,0 -157.82,103.64 -103.64,103.64z"/>
   <path class="fil5" d="M8260.28 6440.45c-74.11,0 -86.59,-103.63 23.92,-103.63l47.83 0c0,35.11 12.96,103.63 -71.75,103.63zm-87.69 -175.37c71.07,0 11.37,-42.38 90.49,-52.88 65.5,-8.68 68.95,37.24 68.95,76.79 -284.79,0 -203.49,207.26 -79.72,207.26 43.39,0 62.41,-22.94 87.69,-39.86l0 31.88 63.78 0c-0.79,-35.51 -8.35,-55.97 -8.08,-103.52 0.59,-103.36 23.56,-223.31 -119.47,-223.31 -101.43,0 -164.19,103.64 -103.64,103.64z"/>
   <path class="fil5" d="M4107.03 6440.45c-93.15,0 -84.73,-103.63 15.94,-103.63l55.81 0c0,37.13 5.03,103.63 -71.75,103.63zm-95.66 -175.37c65.47,0 36.89,-55.81 103.63,-55.81 15.2,0 40.55,11.06 49.95,21.8 13.72,15.68 13.83,30.68 13.83,57.92 -288.14,0 -198.85,207.26 -87.69,207.26 26.7,0 59.99,-14.74 79.72,-31.89 16.28,11.93 5.39,13.42 26.79,21.04 15.84,5.65 35.77,2.87 52.93,2.87 -29.01,-124.52 51,-326.84 -135.53,-326.84 -98.79,0 -157.81,103.64 -103.63,103.64z"/>
   <path class="fil5" d="M3214.2 6440.45c-93.15,0 -84.73,-103.63 15.94,-103.63l55.81 0c0,37.13 5.03,103.63 -71.75,103.63zm-95.66 -175.37c65.47,0 36.9,-55.81 103.64,-55.81 15.19,0 40.55,11.06 49.95,21.8 13.72,15.68 13.82,30.68 13.82,57.92 -288.14,0 -198.84,207.26 -87.69,207.26 26.69,0 59.99,-14.74 79.71,-31.89 17.43,12.77 1,3.88 11.95,11.97 23.26,17.17 29.99,11.95 67.77,11.95 -29.01,-124.52 51,-326.84 -135.52,-326.84 -98.8,0 -157.82,103.64 -103.64,103.64z"/>
   <path class="fil5" d="M5549.9 6440.45c-93.15,0 -84.72,-103.63 15.95,-103.63l55.8 0c0,41.47 6.11,103.63 -71.75,103.63zm-95.66 -175.37c65.47,0 36.9,-55.81 103.64,-55.81 49.07,0 63.77,35.18 63.77,79.72 -288.14,0 -198.84,207.26 -87.69,207.26 15.88,0 30.18,-4.79 45.06,-10.74 0.71,-0.28 13.77,-6.4 16.14,-7.78 15.67,-9.03 9.85,-5.83 18.52,-13.37 26.66,19.54 0.08,23.92 79.71,23.92 -29.01,-124.52 51,-326.84 -135.52,-326.84 -98.8,0 -157.81,103.64 -103.64,103.64z"/>
   <path class="fil5" d="M1611.89 6217.24l15.95 0c45.85,0 62.77,34.82 63.77,79.71l-151.47 0c17.27,-35.98 17.75,-79.71 71.75,-79.71zm15.95 279.01c53.85,0 97.36,-30.62 119.58,-63.77 -7.17,-10.71 -4.5,-7.31 -14.64,-17.26l-8.42 -7.52c-1.05,-0.94 -3.49,-2.86 -4.37,-3.61 -0.88,-0.74 -3.03,-2.26 -4.46,-3.5 -41.93,28.08 -19.99,39.86 -95.66,39.86 -51.3,0 -75.72,-47.59 -79.72,-95.66l215.24 0c0,-267.69 -271.59,-221.3 -277.73,-15.28 -2.7,90.58 61.03,166.75 150.18,166.75z"/>
   <path class="fil5" d="M2122.08 6217.24c49.99,0 78.24,13.48 79.72,79.71l-151.47 0c11.98,-24.96 11.62,-79.71 71.75,-79.71zm-135.52 111.6c0,41.19 19.26,94.7 41.35,118.08 66.74,70.63 177.28,63.81 229.68,-14.44l-31.88 -31.89c-41.93,28.08 -20,39.86 -95.66,39.86 -48.95,0 -78.63,-46.55 -79.72,-95.66l215.24 0c0,-219.34 -171.48,-213.34 -237.21,-133.58 -19.32,23.45 -41.79,78.29 -41.79,117.64z"/>
   <path class="fil5" d="M6490.56 6217.24c36.89,0 55.97,-5.88 77.97,25.66 11.35,16.25 12.87,33.37 17.69,54.05l-151.47 0c2.62,-31.49 24.52,-79.71 55.81,-79.71zm-119.58 111.6c0,161.12 137.31,193.72 220.36,148.61 27.64,-15.02 35.08,-29.66 50.68,-52.95 -29.17,-7.79 -16.71,-8.41 -39.86,-23.92 -42.21,63.05 -167.41,63.99 -167.41,-55.81l207.27 0c0,-78.03 -9.29,-183.35 -127.55,-183.35 -86.46,0 -143.49,78.93 -143.49,167.41z"/>
   <path class="fil5" d="M9153.1 6336.82c0,-174.41 167.41,-136.32 167.41,-39.86 0,70.84 10.09,143.49 -87.69,143.49 -51.78,0 -79.72,-51.18 -79.72,-103.63zm-63.77 -7.97c0,206.27 294.96,245.8 294.96,-15.94 0,-206.07 -294.96,-201.57 -294.96,15.94z"/>
   <path class="fil5" d="M4816.51 6336.82c0,-174.41 167.41,-136.32 167.41,-39.86 0,70.84 10.09,143.49 -87.69,143.49 -51.78,0 -79.72,-51.18 -79.72,-103.63zm-63.77 -7.97c0,206.99 294.95,241.05 294.95,-7.97 0,-224.47 -294.95,-202.92 -294.95,7.97z"/>
   <path class="fil5" d="M8459.57 6320.87c0,84.52 31.12,160.71 111.61,167.41 -10.16,21.17 -7.28,8.53 -7.97,39.86 18.17,4.23 18.33,6.18 39.86,7.97 -1.29,58.06 -8.46,28.94 -47.83,47.83 7.21,14.55 6.15,9.97 7.97,31.89 91.74,0 129.63,-74.11 53.1,-116.87 -1.09,-0.6 -3.65,-1.57 -5.27,-2.7 59.77,-13.93 113.96,-44.18 119.58,-111.6l-55.81 0c-21.39,91.85 -151.46,62.98 -151.46,-15.95 0,-91.9 -10.88,-151.46 87.69,-151.46 43.66,0 55.64,28.82 63.77,63.77l55.81 0c-3.52,-158.13 -271.04,-174.2 -271.04,39.86z"/>
   <path class="fil5" d="M766.89 6440.45c-97.78,0 -87.69,-72.65 -87.69,-143.49 0,-96.45 167.41,-134.55 167.41,39.86 0,52.44 -27.94,103.63 -79.71,103.63zm-151.47 -127.54c0,283.08 357.01,216.07 282.2,-51.02 -42.06,-150.18 -282.2,-129.26 -282.2,51.02z"/>
   <path class="fil5" d="M1037.92 6193.33c-38.12,-27.94 5.07,-23.92 -71.75,-23.92l0 318.86 63.78 0c0,-213.45 -33.56,-298.73 119.58,-263.07 27.71,118.98 -21.16,263.07 31.88,263.07l39.86 0c0,-162.23 32.64,-326.84 -103.64,-326.84 -42.82,0 -57.08,12.2 -79.72,31.89z"/>
   <path class="fil5" d="M7510.94 6384.65c0,91.54 78.26,136.7 162.51,97.42 26.64,-12.42 33.38,-32.77 36.79,6.2l55.8 0 0 -318.86 -63.77 0c0,236.94 26.01,271.03 -87.69,271.03 -18.59,0 -39.86,-21.27 -39.86,-39.86l0 -231.18 -63.77 0 0 215.24z"/>
   <path class="fil5" d="M5167.26 6201.3l0 -31.88 -55.8 0 0 318.86 55.8 0c0,-220.86 -27.05,-271.03 95.66,-271.03 61.91,0 39.86,174.34 39.86,271.03 80.84,0 63.77,23.11 63.77,-175.37 0,-82.77 -21.33,-151.47 -103.64,-151.47 -53.96,0 -65.38,19.58 -95.66,39.86z"/>
   <path class="fil5" d="M2377.17 6201.3l0 -31.88 -55.8 0 0 318.86 55.8 0c0,-69.44 -12.05,-218.63 14.61,-248.45 16.72,-18.71 120.91,-63.58 120.91,49.17l0 199.29 55.8 0 0 -239.15c0,-51.37 -43.97,-87.69 -95.66,-87.69 -53.96,0 -65.38,19.58 -95.66,39.86z"/>
   <path class="fil5" d="M7957.35 6496.25c113.52,0 126.9,-77.01 143.49,-111.6l-63.77 0c-6.47,77.71 -151.47,94.43 -151.47,-55.81 0,-150.29 144,-137.52 151.47,-47.83l63.77 0c-16.47,-34.34 -17.39,-119.58 -135.52,-119.58 -162.82,0 -183.11,250.84 -67.96,315.09 7.79,4.34 53.23,19.73 59.99,19.73z"/>
   <path class="fil5" d="M4298.35 6328.85c0,213.4 267.64,208.3 271.03,55.81l-55.8 0c-6.4,76.88 -151.47,88.43 -151.47,-39.86 0,-103.59 14.23,-127.54 103.64,-127.54 28.58,0 45.41,34.73 47.83,63.77l63.77 0c-12.32,-25.67 -17.82,-119.58 -135.52,-119.58 -95.61,0 -143.49,88.34 -143.49,167.41z"/>
   <path class="fil5" d="M2632.26 6304.93c0,275.99 260.4,207.53 271.04,79.72l-55.81 0c-25.32,52.77 -13.61,55.8 -95.66,55.8 -77.56,0 -77.56,-223.2 0,-223.2 54.51,0 79.89,-3.93 95.66,63.77l55.81 0c-14.36,-172.61 -271.04,-152.59 -271.04,23.92z"/>
   <path class="fil5" d="M1316.94 6169.41l-47.83 0c0,50.6 -2.78,47.83 47.83,47.83l0 247.12c0,30.19 18.6,23.92 63.77,23.92l0 -271.03c76.83,0 71.75,6.74 71.75,-47.83l-71.75 0c0,-81.29 6.4,-87.69 87.69,-87.69l0 -47.83c-40.91,-0.91 -24.64,-7.47 -58.38,-2.67 -71.51,10.17 -93.07,63.28 -93.07,138.19z"/>
   <path class="fil3" d="M5135.38 2103.86c-17.96,-77.06 -106.54,-149.39 -199.3,-151.47l-24.06 200.56c-7.3,50.95 -26,60.13 117,-3.98 36.62,-16.41 74.19,-28.09 106.36,-45.11z"/>
   <polygon class="fil5" points="5765.14,6488.28 5820.94,6488.28 5820.94,6033.9 5765.14,6033.9 "/>
   <path class="fil5" d="M1866.99 6193.33l0 -23.92 -55.81 0 0 318.86 55.81 0 0 -215.24c0,-23.44 23.48,-42.25 41.73,-45.95 45.83,-9.28 61.9,16.06 61.9,-41.74 0,-61.61 -95.92,2.82 -103.63,7.97z"/>
   <polygon class="fil5" points="2959.11,6488.28 3022.88,6488.28 3022.88,6169.41 2959.11,6169.41 "/>
   <polygon class="fil5" points="4633.16,6488.28 4688.96,6488.28 4688.96,6169.41 4633.16,6169.41 "/>
   <path class="fil5" d="M8953.82 6073.75c-58.19,0 -7.52,-23.92 -95.66,-23.92 -34.11,0 -75.69,80.54 -24.22,79.08 21.92,-0.63 19.93,-12.88 24.22,-31.25 51.82,0 120.19,60 156.39,-12.42 19.3,-38.59 5.79,-43.39 -36.81,-43.39 -1.87,22.5 0.18,31.89 -23.92,31.89z"/>
   <path class="fil5" d="M2042.36 6129.55c72.18,0 42.12,-17.31 87.69,-47.82 45.58,30.52 15.51,47.82 87.69,47.82 -9.97,-42.78 -69,-95.65 -87.69,-95.65 -19.27,0 -78.03,54.2 -87.69,95.65z"/>
   <path class="fil5" d="M4625.19 6081.73c0,13.49 10.62,29.79 15.94,39.86 75.43,0 60.42,-42.02 43.42,-59.36l-19.51 -12.38c-10.84,5.73 -39.86,17.45 -39.86,31.89z"/>
   <path class="fil5" d="M2959.34 6066.21c-0.24,17.65 0.12,55.37 23.68,55.37 42,0 35,-13.12 47.83,-39.86 -1.24,-1.43 -2.95,-5.76 -3.5,-4.47l-36.36 -27.42 -31.65 16.37z"/>
  </g>
 </g>
</svg>
